<svg xmlns="http://www.w3.org/2000/svg" width="21.502" height="21.678" viewBox="0 0 21.502 21.678"><defs><style>.a{fill:#fff;}</style></defs><path class="a" d="M7,26.243A2.243,2.243,0,1,0,9.243,24,2.245,2.245,0,0,0,7,26.243Zm2.99,0a.748.748,0,1,1-.748-.748A.749.749,0,0,1,9.99,26.243Z" transform="translate(-2.515 -6.807)"/><path class="a" d="M23.485,26.243a2.243,2.243,0,1,0-2.243,2.243A2.245,2.245,0,0,0,23.485,26.243Zm-2.99,0a.748.748,0,1,1,.748.748A.749.749,0,0,1,20.5,26.243Z" transform="translate(-5.545 -6.807)"/><path class="a" d="M3.317,2.5C3.41,3.378,4.442,13.176,4.6,14.69A2.238,2.238,0,0,0,6.831,16.7H18.48a2.256,2.256,0,0,0,2.193-1.773l1.8-8.379a1.5,1.5,0,0,0-1.463-1.808H5.057L4.734,1.67A.748.748,0,0,0,3.99,1H1.748a.748.748,0,0,0,0,1.5ZM21.006,6.233l-1.795,8.379a.753.753,0,0,1-.732.591H6.831a.746.746,0,0,1-.744-.669l-.874-8.3Z" transform="translate(-1 -1)"/></svg>