<svg xmlns="http://www.w3.org/2000/svg" xmlns:xlink="http://www.w3.org/1999/xlink" xml:space="preserve" version="1.1" style="shape-rendering:geometricPrecision;text-rendering:geometricPrecision;image-rendering:optimizeQuality;" viewBox="0 0 847 1058.75" x="0px" y="0px" fill-rule="evenodd" clip-rule="evenodd"><defs><style type="text/css">
   
    .fil0 {fill:black;fill-rule:nonzero}
   
  </style></defs><g><path class="fil0" d="M541 100l-248 0 -10 0 -7 7 -100 100 -7 7 0 10 0 386 0 23 24 0 89 0 0 90 0 23 24 0 348 0 23 0 0 -23 0 -486 0 -24 -23 0 -90 0 0 -89 0 -24 -23 0zm-211 533l211 0 23 0 0 -23 0 -349 66 0 0 438 -300 0 0 -66zm-27 -485l214 0 0 438 -300 0 0 -352 86 -86z"/></g></svg>